<?xml version="1.0" encoding="UTF-8" standalone="no"?>
<svg
   version="1.1"
   viewBox="0 0 537.90825 607.284"
   width="537.90826pt"
   height="607.284pt"
   id="svg19"
   sodipodi:docname="favicon.svg"
   inkscape:version="1.3.2 (091e20e, 2023-11-25)"
   xmlns:inkscape="http://www.inkscape.org/namespaces/inkscape"
   xmlns:sodipodi="http://sodipodi.sourceforge.net/DTD/sodipodi-0.dtd"
   xmlns="http://www.w3.org/2000/svg"
   xmlns:svg="http://www.w3.org/2000/svg">
  <defs
     id="defs19" />
  <sodipodi:namedview
     id="namedview19"
     pagecolor="#ffffff"
     bordercolor="#000000"
     borderopacity="0.25"
     inkscape:showpageshadow="2"
     inkscape:pageopacity="0.0"
     inkscape:pagecheckerboard="0"
     inkscape:deskcolor="#d1d1d1"
     inkscape:document-units="pt"
     inkscape:zoom="0.52623681"
     inkscape:cx="513.07699"
     inkscape:cy="530.17956"
     inkscape:window-width="2560"
     inkscape:window-height="1387"
     inkscape:window-x="3432"
     inkscape:window-y="25"
     inkscape:window-maximized="0"
     inkscape:current-layer="svg19" />
  <path
     d="m 459.87589,1.952689 c 19,3.48 36.94,12.89 50.57,26.57 13.2,13.73 22.29,31.459996 25.81,50.169996 2.03,10.06 1.74,20.27 1.44,30.599995 -1.47,19.07 -8.26,37.79 -20.13,52.85 -5.25,6.82 -11.88,12.76 -17.95,19.06 -16.65,17.08 -33.49,33.98 -50.13,51.07 -8.0799,8.19 -15.8999,16.63 -24.15995,24.64 -6.43,6.48 -13.21,13.65 -20.67,19.33 -3.89,2.94 -8.32,2.93 -12.98,2.77 -5.06,-0.26 -9.55,-1.86 -14.37,-3.28 11.05,-12.21 23.11,-23.49 34.51,-35.35 5.02,-5.59 8.91,-12.11 10.48,-19.52 1.29,-5.51 0.95,-11.27 2.24,-16.75 1.3,-5.29 4.72005,-8.82 8.41005,-12.59 5.99,-6.02 11.8199,-12.18 17.5599,-18.43 10.37,-10.63 21.03,-20.99 31.38,-31.64 7.69,-8.12 12.94,-18.1 14.94,-29.14 1.94,-10.85 1.45,-22.579995 -2.12,-33.059995 -4.72,-13.32 -15.01,-24.839996 -27.25,-31.749996 -13.22,-6.74 -29.7399,-9 -44.22995,-5.69 -10.76,2.4 -20.38,8.09 -28.2,15.789996 -7.51,7.48 -14.8,15.19 -22.24,22.75 -14.16,14.86 -28.88,29.129995 -43.22,43.789995 -24.18,25.48 -49.44,49.89 -73.74,75.25 -4.51,4.81 -9.09,8.78 -12.63,14.37 -6.17,9.66 -9.85,21.05 -10.3,32.52 0.11,8.65 2.44,17.42 6.97,24.83 4.53,7.25 12.22,12.04 20.62,13.35 8.98,1.82 18.69,-1.14 26.01,-6.41 5.82,-4.31 10.36,-10.36 15.62,-15.35 20.63,-20.06 40.48,-40.85 60.76,-61.26 3.01,-3.01 5.59,-6.13 6.59,-10.39 0.73,-4.23 0.45,-8.71 -2.43,-12.12 -1.56,-1.78 -4.21,-3.17 -6.47,-1.77 -3.83,2.25 -6.48,6.27 -10.14,8.86 -5.36,4.25 -13.59,4.63 -19.25,0.78 -6.2,-4.22 -9.14,-12.82 -7.88,-20.05 0.87,-5.01 4.12,-7.95 7.55,-11.33 4.95,-4.69 9.51,-9.91 14.78,-14.23 4.81,-3.92 10.8,-6.23 17.04,-6.01 7.93,-0.32 15.24,1.79 21.67,6.44 12.05,8.58 21.69,22.14 24.05,36.91 2.05,17.27 -1.67,35.54 -14.15,48.28 -12.1,11.91 -23.63,24.36 -35.82,36.18 -12.43,12.91 -25.27,25.39 -37.83,38.17 -9.16,9.64 -21.36,17.06 -34.07,20.92 -16.77,4.79 -35.09,3.78 -50.93,-3.69 -10.52,-4.96 -20.33,-12.4 -27.1,-21.92 -9.5,-13.21 -15.34,-28.82 -15.47,-45.2 0.22,-19.39 3.98,-39.77 14.13,-56.55 8.49,-14.76 22.56,-26.43 34.16,-38.85 10.58,-11.42 21.98,-22.01 32.66,-33.33 14.05,-14.28 28.27,-28.389995 42.45,-42.549995 17.4,-17.59 34.58,-35.439996 52.15,-52.859996 23.83,-22.92 59.24005,-31.34 91.30995,-25.18 z"
     fill="#364f63"
     id="path3"
     style="fill:#fb7c94;fill-opacity:1" />
  <path
     d="m 29.695938,231.53268 c 41.56,-0.03 83.420002,-0.01 125.000002,-0.01 4.34,-0.04 8.65,-0.14 12.98,0.31 -1.9,14.64 -1.26,29.44 2.8,43.67 4.75,16.4 13,31.76 24.94,44.06 10.95,11.67 24.56,21.17 39.88,26.11 12.97,4.53 26.44,5.29 40.06,4.29 17.71,-1.98 35.04,-8.84 48.91,-20.11 8.35,-6.48 15,-14.12 22.33,-21.67 10.32,-10.74 20.36,-21.74 30.71,-32.45 4.82,1.42 9.31,3.02 14.37,3.28 4.66,0.16 9.09,0.17 12.98,-2.77 7.46,-5.68 14.24,-12.85 20.67,-19.33 8.26005,-8.01 16.08005,-16.45 24.15995,-24.64 6.4,0.25 12.81,-0.13 19.21,0.12 4.1,0.18 7.83,2.46 9.84,6.02 1.74,2.77 1.32,6.71 1.4,9.86 -0.18,7.92 0.25,15.86 -0.23,23.77 -23,17.06 -45.8099,34.35 -68.78995,51.46 -18.32,14.08 -37,27.65 -55.54,41.44 -16.32,12.35 -32.72,24.59 -48.94,37.07 -13.89,10.47 -27.95,20.7 -41.85,31.15 -5.09,3.81 -10.43,6.86 -16.83,7.78 -4.12,-0.27 -8.05,-0.25 -12.16,0.1 -7.18,-0.85 -13.55,-4.07 -19.16,-8.51 -22.18,-16.88 -44.8,-33.18 -67.11,-49.89 -23.82,-17.9 -47.94,-35.37 -71.860002,-53.14 -25.18,-18.96 -50.7,-37.48 -76.1900001,-56.02 0.24,-6.11 0.18,-12.21 -0.17,-18.3 2.15,-13.27 15.0700001,-24.13 28.5900001,-23.65 z"
     fill="#0c7dce"
     id="path8"
     style="fill:#4dd2f5;fill-opacity:1" />
  <path
     d="m 266.68594,232.35268 c 14.07,0.16 28.15,0 42.22,0.06 -3.82,4.42 -8.4,8.35 -12.67,12.42 -6.89,6.43 -13.64,13.02 -20.63,19.34 -1.43,1.2 -3.15,2.78 -5.03,3.13 -3.38,0.32 -6.44,-1.96 -8.51,-4.41 -7.17,-8.44 -7.21,-20.42 -2.91,-30.22 2.5,-0.27 5.02,-0.34 7.53,-0.32 z"
     fill="#0c7dce"
     id="path9"
     style="fill:#4dd2f5;fill-opacity:1" />
  <path
     d="m 1.1059379,255.18268 c 0.35,6.09 0.41,12.19 0.17,18.3 -1.43,-5.76 -0.8,-12.44 -0.17,-18.3 z"
     fill="#364f63"
     id="path10" />
  <path
     d="m 0.0159379,312.54268 c 4.33,2.7 8.35,5.94 12.4600001,8.95 19.52,14.45 38.69,29.41 58.39,43.61 9.9,7.07 19.7,14.27 29.480002,21.51 20.56,15.66 42.16,30.07 62.59,45.9 -3.7,4.06 -8.03,7.25 -12.08,10.94 -25.58,22.45 -51.300002,44.71 -77.020002,66.99 -24.02,20.84 -48.2,41.47 -71.9900001,62.58 -1.66,-9.64 -1.48,-19.91 -1.66,-29.75 -0.23,-76.9 -0.19,-153.83 -0.17,-230.73 z"
     fill="#0c7dce"
     id="path12"
     style="fill:#4dd2f5;fill-opacity:1" />
  <path
     d="m 479.85589,313.19268 c 0.12,61.67 0.04,123.4 0.07,185.08 -0.03,18.08 0.1,36.14 -0.27,54.22 -0.68,-5.74 -0.57,-11.46 -0.5,-17.22 -0.05,-68.33 -0.02,-136.67 -0.01,-205 0.09,-5.39 0.05,-10.74 -0.54,-16.1 z"
     fill="#364f63"
     id="path13" />
  <path
     d="m 478.60589,314.17268 c 0.59,5.36 0.63,10.71 0.54,16.1 -0.01,68.33 -0.04,136.67 0.01,205 -0.07,5.76 -0.18,11.48 0.5,17.22 0.22,5.69 -0.33,11.33 -1.07,16.97 -11.36,-9.65 -22.52,-19.55 -33.8,-29.31 -41.05995,-35.94 -82.52995,-71.86 -123.38995,-108.01 2.95,-2.48 6.07,-4.72 9.2,-6.97 49.46,-36.83 98.31005,-74.51 148.00995,-111 z"
     fill="#0c7dce"
     id="path14"
     style="fill:#4dd2f5;fill-opacity:1" />
  <path
     d="m 247.75594,440.94268 c -4.03,0.65 -8.12,0.64 -12.16,0.1 4.11,-0.35 8.04,-0.37 12.16,-0.1 z"
     fill="#364f63"
     id="path16" />
  <path
     d="m 188.67594,450.10268 c 3.12,2.26 5.95,4.86 9.03,7.16 11.85,8.78 25.25,15 40.15,15.9 -2.09,0.14 -4.16,0.39 -6.23,0.66 7.03,0.25 14.08,0.15 21.12,0 -2.07,-0.27 -4.14,-0.52 -6.23,-0.68 8.05,-0.79 15.89,-2.48 23.32,-5.73 9.7,-4.05 17.4,-10.17 25.79,-16.27 56.36,48.56 111.72,97.37 168.74995,145.15 -6.47,7.04 -13.83,10.4 -23.4399,10.55 -5.08,-0.14 -10.15,-0.23 -15.24005,-0.17 -123,0 -246,-0.01 -369.000002,-0.01 -5.77,-0.08 -11.5,-0.03 -17.26,0.26 -7.69,-0.42 -14.62,-2.74 -20.81,-7.35 26.5,-24.2 54.15,-47.69 81.05,-71.33 22.080002,-19.24 44.080002,-38.57 66.010002,-57.98 7.72,-6.64 15.06,-13.77 22.99,-20.16 z"
     fill="#0c7dce"
     id="path17"
     style="fill:#4dd2f5;fill-opacity:1" />
  <path
     d="m 237.85594,473.16268 c 2.89,0.04 5.77,0.04 8.66,-0.02 2.09,0.16 4.16,0.41 6.23,0.68 -7.04,0.15 -14.09,0.25 -21.12,0 2.07,-0.27 4.14,-0.52 6.23,-0.66 z"
     fill="#364f63"
     id="path18" />
  <path
     d="m 39.435938,606.92268 c 5.76,-0.29 11.49,-0.34 17.26,-0.26 123.000002,0 246.000002,0.01 369.000002,0.01 5.09005,-0.06 10.16005,0.03 15.24005,0.17 -9.4,0.47 -18.83005,0.32 -28.24005,0.42 -120.67,0.03 -241.33,0 -362.000002,0.02 -3.76,0.01 -7.51,-0.03 -11.26,-0.36 z"
     fill="#364f63"
     id="path19" />
</svg>
