<?xml version="1.0" encoding="UTF-8" standalone="no"?>
<svg
   version="1.1"
   viewBox="0 0 1830.4498 935.40479"
   width="1830.4498pt"
   height="935.40479pt"
   id="svg19"
   sodipodi:docname="outlook_red.svg"
   inkscape:version="1.3.2 (091e20e, 2023-11-25)"
   xmlns:inkscape="http://www.inkscape.org/namespaces/inkscape"
   xmlns:sodipodi="http://sodipodi.sourceforge.net/DTD/sodipodi-0.dtd"
   xmlns="http://www.w3.org/2000/svg"
   xmlns:svg="http://www.w3.org/2000/svg">
  <defs
     id="defs19" />
  <sodipodi:namedview
     id="namedview19"
     pagecolor="#ffffff"
     bordercolor="#000000"
     borderopacity="0.25"
     inkscape:showpageshadow="2"
     inkscape:pageopacity="0.0"
     inkscape:pagecheckerboard="0"
     inkscape:deskcolor="#d1d1d1"
     inkscape:document-units="pt"
     inkscape:zoom="0.52623681"
     inkscape:cx="1276.9916"
     inkscape:cy="589.0884"
     inkscape:window-width="2560"
     inkscape:window-height="1387"
     inkscape:window-x="3432"
     inkscape:window-y="25"
     inkscape:window-maximized="0"
     inkscape:current-layer="svg19" />
  <path
     d="m 1153.5089,0.04632395 c 28.67,0 57.41,0.02 86.08,-0.03 4.26,-0.28 7.37,3.07999995 7.75,7.15999995 0.3,4.7800001 0.54,9.8300001 -0.13,14.5900001 -1.52,3.87 -5.16,7.04 -7.74,10.27 -13.49,16.2 -26.72,32.62 -39.89,49.08 -3.5,4.6 -7.44,8.92 -10.56,13.78 16.84,0.33 33.71,0 50.55,0.13 3.57,-0.05 6.83,3.04 7.49,6.459996 0.57,3.15 0.44,6.46 0.46,9.64 -0.11,2.71 -0.03,5.84 -1.93,8.01 -1.75,2.12 -4.33,2.96 -7.01,2.98 -28.28,-0.03 -56.81,-0.03 -85.09,0 -2.85,0.01 -5.91,-0.92 -7.68,-3.29 -1.61,-2.14 -1.65,-5.14 -1.78,-7.71 0.17,-6.02 -1.16,-11.319996 3.57,-15.969996 16.31,-19.12 31.82,-38.93 47.2,-58.79 1.87,-2.3 3.64,-4.66 5.26,-7.14 -14.51,-0.28 -29.04,-0.06 -43.56,-0.1 -4.81,-0.17 -9.69,-1.99 -10.75,-7.23 -0.48,-4.55 -0.29,-9.24 -0.14,-13.8100001 0.07,-4.29 3.53,-8.06999995 7.9,-8.02999995 z"
     fill="#364f63"
     id="path2"
     style="fill:#600d1c;fill-opacity:1" />
  <path
     d="m 1032.7189,45.766324 c 19,3.48 36.94,12.89 50.57,26.57 13.2,13.73 22.29,31.459996 25.81,50.169996 2.03,10.06 1.74,20.27 1.44,30.6 -1.47,19.07 -8.26,37.79 -20.13,52.85 -5.25,6.82 -11.88,12.76 -17.95,19.06 -16.65,17.08 -33.49,33.98 -50.13,51.07 -8.0799,8.19 -15.8999,16.63 -24.15995,24.64 -6.43,6.48 -13.21,13.65 -20.67,19.33 -3.89,2.94 -8.32,2.93 -12.98,2.77 -5.06,-0.26 -9.55,-1.86 -14.37,-3.28 11.05,-12.21 23.11,-23.49 34.51,-35.35 5.02,-5.59 8.91,-12.11 10.48,-19.52 1.29,-5.51 0.95,-11.27 2.24,-16.75 1.3,-5.29 4.72005,-8.82 8.41005,-12.59 5.99,-6.02 11.8199,-12.18 17.5599,-18.43 10.37,-10.63 21.03,-20.99 31.38,-31.64 7.69,-8.12 12.94,-18.1 14.94,-29.14 1.94,-10.85 1.45,-22.58 -2.12,-33.06 -4.72,-13.32 -15.01,-24.839996 -27.25,-31.749996 -13.22,-6.74 -29.7399,-9 -44.22995,-5.69 -10.76,2.4 -20.38,8.09 -28.2,15.789996 -7.51,7.48 -14.8,15.19 -22.24,22.75 -14.16,14.86 -28.88,29.13 -43.22,43.79 -24.18,25.48 -49.44,49.89 -73.74,75.25 -4.51,4.81 -9.09,8.78 -12.63,14.37 -6.17,9.66 -9.85,21.05 -10.3,32.52 0.11,8.65 2.44,17.42 6.97,24.83 4.53,7.25 12.22,12.04 20.62,13.35 8.98,1.82 18.69,-1.14 26.01,-6.41 5.82,-4.31 10.36,-10.36 15.62,-15.35 20.63,-20.06 40.48,-40.85 60.76,-61.26 3.01,-3.01 5.59,-6.13 6.59,-10.39 0.73,-4.23 0.45,-8.71 -2.43,-12.12 -1.56,-1.78 -4.21,-3.17 -6.47,-1.77 -3.83,2.25 -6.48,6.27 -10.14,8.86 -5.36,4.25 -13.59,4.63 -19.25,0.78 -6.2,-4.22 -9.14,-12.82 -7.88,-20.05 0.87,-5.01 4.12,-7.95 7.55,-11.33 4.95,-4.69 9.51,-9.91 14.78,-14.23 4.81,-3.92 10.8,-6.23 17.04,-6.01 7.93,-0.32 15.24,1.79 21.67,6.44 12.05,8.58 21.69,22.14 24.05,36.91 2.05,17.27 -1.67,35.54 -14.15,48.28 -12.1,11.91 -23.63,24.36 -35.82,36.18 -12.43,12.91 -25.27,25.39 -37.83,38.17 -9.16,9.64 -21.36,17.06 -34.07,20.92 -16.77,4.79 -35.09,3.78 -50.93,-3.69 -10.52,-4.96 -20.33,-12.4 -27.1,-21.92 -9.5,-13.21 -15.34,-28.82 -15.47,-45.2 0.22,-19.39 3.98,-39.77 14.13,-56.55 8.49,-14.76 22.56,-26.43 34.16,-38.85 10.58,-11.42 21.98,-22.01 32.66,-33.33 14.05,-14.28 28.27,-28.39 42.45,-42.55 17.4,-17.59 34.58,-35.439996 52.15,-52.859996 23.83,-22.92 59.24005,-31.34 91.30995,-25.18 z"
     fill="#364f63"
     id="path3"
     style="fill:#600d1c;fill-opacity:1" />
  <path
     d="m 1272.4989,55.056324 c 19.02,0.06 38.07,0.02 57.09,0.02 2.88,0.04 6.2,0.44 8.1,2.87 1.93,2.45 1.75,5.15 1.83,8.1 -0.04,2.83 0.14,5.84 -0.48,8.61 -1.21,2.99 -4,5.43 -5.98,7.95 -12.26,14.77 -24.32,29.709996 -36.62,44.449996 11.38,0.08 22.76,-0.01 34.14,0.02 3.63,0.08 7.56,1.66 8.21,5.67 0.74,4.33 0.99,9.31 -0.09,13.59 -1.41,4.03 -5.41,4.49 -9.12,4.65 -17.68,0.07 -35.36,0.01 -53.04,0.04 -3.42,-0.05 -7.12,0.27 -10.47,-0.51 -2.84,-0.68 -5.54,-2.82 -6.08,-5.81 -0.56,-3.43 -0.47,-7.04 -0.18,-10.5 0.24,-2.69 1.81,-4.41 3.43,-6.4 9.79,-11.59 19.19,-23.47 28.7,-35.309996 3.41,-4.46 7.13,-8.48 10.12,-13.19 -10.52,-0.14 -21.05,0.03 -31.57,-0.09 -2.85,0.01 -6.04,-0.94 -7.6,-3.51 -1.43,-2.78 -1.18,-6.61 -1.24,-9.66 0.07,-2.74 0.06,-6.6 2.26,-8.59 2.45,-2.27 5.43,-2.34 8.59,-2.4 z"
     fill="#364f63"
     id="path4"
     style="fill:#600d1c;fill-opacity:1" />
  <path
     d="m 1287.6189,197.99632 c 11.01,7.32 20.82,16.57 29.44,26.56 14.73,17.15 25.16,37.81 30.3,59.82 4.91,21.55 4.87,44.55 -0.48,66.02 -8.62,35.68 -31.92,67.62 -63.15,86.88 -22.51,14.02 -48.76,20.81 -75.21,20.74 -3.02,-0.11 -5.98,-0.44 -8.99,-0.71 -13.89,-1.14 -27.46,-4.57 -40.35,-9.84 -49.19,-19.93 -84.59,-69.37 -87.68,-122.34 -0.23,-7.64 -0.35,-15.37 0.25,-23 3.04,-27.83 14.02,-55.28 31.97,-76.87 17.69,-21.6 41.98,-37.7 68.95,-45.06 38.59,-11.17 81.63,-4.75 114.95,17.8 z"
     fill="#364f63"
     id="path5"
     style="fill:#600d1c;fill-opacity:1" />
  <path
     d="m 1249.1789,214.45632 c 20.46,7.82 38.45,22.18 50.53,40.46 11.5,16.82 18.08,36.78 18.82,57.14 0.54,17.33 -2.99,34.92 -10.42,50.61 -8.87,18.81 -23.13,35.13 -40.7,46.28 -15.69,9.96 -34.27,15.81 -52.87,16.14 -15.82,0.45 -31.73,-2.34 -46.2,-8.82 -17.63,-7.91 -33.28,-20.72 -44.53,-36.44 -11.06,-15.69 -17.87,-34.26 -19.5,-53.39 -1.88,-18.91 1.68,-38.75 9.54,-56.04 10.08,-22.15 27.84,-40.52 49.58,-51.43 26.32,-13.43 58.17,-15.13 85.75,-4.51 z"
     fill="#fdfdfd"
     id="path6"
     style="fill:#f94b6c;fill-opacity:1" />
  <path
     d="m 1214.9289,233.69632 c 5.95,1.81 10.08,7.05 10.06,13.34 0.12,18 -0.01,36.06 0.05,54.07 0.04,1.6 0.09,3 1.22,4.26 4.03,5.15 9.12,9.62 13.69,14.3 8.78,8.9 17.6,17.74 26.66,26.34 2.52,2.49 4.78,4.89 5.56,8.47 1.79,6.89 -3.7,14.42 -10.47,15.84 -5.42,1.43 -11.06,-0.5 -14.93,-4.44 -7.86,-7.81 -15.64,-15.71 -23.47,-23.55 -2.37,-2.3 -4.55,-4.91 -7.15,-6.95 -4.99,-0.83 -9.32,0.75 -14.11,-1.77 -8,-3.8 -11.94,-12.93 -9.52,-21.43 0.97,-4.45 4.81,-7.64 4.5,-12.03 0.01,-17.68 -0.08,-35.43 0,-53.11 -0.25,-9.11 9.35,-16.09 17.91,-13.34 z"
     fill="#364f63"
     id="path7"
     style="fill:#600d1c;fill-opacity:1" />
  <path
     d="m 602.53895,275.34632 c 41.56,-0.03 83.42,-0.01 125,-0.01 4.34,-0.04 8.65,-0.14 12.98,0.31 -1.9,14.64 -1.26,29.44 2.8,43.67 4.75,16.4 13,31.76 24.94,44.06 10.95,11.67 24.56,21.17 39.88,26.11 12.97,4.53 26.44,5.29 40.06,4.29 17.71,-1.98 35.04,-8.84 48.91,-20.11 8.35,-6.48 15,-14.12 22.33,-21.67 10.32,-10.74 20.36,-21.74 30.71,-32.45 4.82,1.42 9.31,3.02 14.37,3.28 4.66,0.16 9.09,0.17 12.98,-2.77 7.46,-5.68 14.24,-12.85 20.67,-19.33 8.26005,-8.01 16.08005,-16.45 24.15995,-24.64 6.4,0.25 12.81,-0.13 19.21,0.12 4.1,0.18 7.83,2.46 9.84,6.02 1.74,2.77 1.32,6.71 1.4,9.86 -0.18,7.92 0.25,15.86 -0.23,23.77 -23,17.06 -45.8099,34.35 -68.78995,51.46 -18.32,14.08 -37,27.65 -55.54,41.44 -16.32,12.35 -32.72,24.59 -48.94,37.07 -13.89,10.47 -27.95,20.7 -41.85,31.15 -5.09,3.81 -10.43,6.86 -16.83,7.78 -4.12,-0.27 -8.05,-0.25 -12.16,0.1 -7.18,-0.85 -13.55,-4.07 -19.16,-8.51 -22.18,-16.88 -44.8,-33.18 -67.11,-49.89 -23.82,-17.9 -47.94,-35.37 -71.86,-53.14 -25.18,-18.96 -50.7,-37.48 -76.19,-56.02 0.24,-6.11 0.18,-12.21 -0.17,-18.3 2.15,-13.27 15.07,-24.13 28.59,-23.65 z"
     fill="#0c7dce"
     id="path8"
     style="fill:#4dd2f5;fill-opacity:1" />
  <path
     d="m 839.52895,276.16632 c 14.07,0.16 28.15,0 42.22,0.06 -3.82,4.42 -8.4,8.35 -12.67,12.42 -6.89,6.43 -13.64,13.02 -20.63,19.34 -1.43,1.2 -3.15,2.78 -5.03,3.13 -3.38,0.32 -6.44,-1.96 -8.51,-4.41 -7.17,-8.44 -7.21,-20.42 -2.91,-30.22 2.5,-0.27 5.02,-0.34 7.53,-0.32 z"
     fill="#0c7dce"
     id="path9"
     style="fill:#4dd2f5;fill-opacity:1" />
  <path
     d="m 573.94895,298.99632 c 0.35,6.09 0.41,12.19 0.17,18.3 -1.43,-5.76 -0.8,-12.44 -0.17,-18.3 z"
     fill="#364f63"
     id="path10" />
  <path
     d="m 1124.7989,312.33632 c 3.71,-0.51 8.82,-0.9 11.98,1.5 4.6,3.4 3.78,11.67 -1.73,13.78 -3.58,1.18 -7.71,1.18 -11.38,0.42 -4.77,-0.99 -7.63,-6.84 -5.34,-11.17 1.24,-2.63 3.69,-4.02 6.47,-4.53 z"
     fill="#364f63"
     id="path11" />
  <path
     d="m 572.85895,356.35632 c 4.33,2.7 8.35,5.94 12.46,8.95 19.52,14.45 38.69,29.41 58.39,43.61 9.9,7.07 19.7,14.27 29.48,21.51 20.56,15.66 42.16,30.07 62.59,45.9 -3.7,4.06 -8.03,7.25 -12.08,10.94 -25.58,22.45 -51.3,44.71 -77.02,66.99 -24.02,20.84 -48.2,41.47 -71.99,62.58 -1.66,-9.64 -1.48,-19.91 -1.66,-29.75 -0.23,-76.9 -0.19,-153.83 -0.17,-230.73 z"
     fill="#0c7dce"
     id="path12"
     style="fill:#4dd2f5;fill-opacity:1" />
  <path
     d="m 1052.6989,357.00632 c 0.12,61.67 0.04,123.4 0.07,185.08 -0.03,18.08 0.1,36.14 -0.27,54.22 -0.68,-5.74 -0.57,-11.46 -0.5,-17.22 -0.05,-68.33 -0.02,-136.67 -0.01,-205 0.09,-5.39 0.05,-10.74 -0.54,-16.1 z"
     fill="#364f63"
     id="path13" />
  <path
     d="m 1051.4489,357.98632 c 0.59,5.36 0.63,10.71 0.54,16.1 -0.01,68.33 -0.04,136.67 0.01,205 -0.07,5.76 -0.18,11.48 0.5,17.22 0.22,5.69 -0.33,11.33 -1.07,16.97 -11.36,-9.65 -22.52,-19.55 -33.8,-29.31 -41.05995,-35.94 -82.52995,-71.86 -123.38995,-108.01 2.95,-2.48 6.07,-4.72 9.2,-6.97 49.46,-36.83 98.31005,-74.51 148.00995,-111 z"
     fill="#0c7dce"
     id="path14"
     style="fill:#4dd2f5;fill-opacity:1" />
  <path
     d="m 1207.9189,389.42632 c 3.49,-1.01 7.4,-0.45 9.74,2.55 2.38,3.05 1.95,6.52 1.98,10.16 -0.01,3.02 -0.54,6.03 -2.86,8.17 -3.39,2.84 -9.66,2.65 -12.28,-1.18 -2.38,-3.3 -2.15,-8.16 -1.93,-12.02 0.29,-3.44 1.99,-6.47 5.35,-7.68 z"
     fill="#364f63"
     id="path15" />
  <path
     d="m 820.59895,484.75632 c -4.03,0.65 -8.12,0.64 -12.16,0.1 4.11,-0.35 8.04,-0.37 12.16,-0.1 z"
     fill="#364f63"
     id="path16" />
  <path
     d="m 761.51895,493.91632 c 3.12,2.26 5.95,4.86 9.03,7.16 11.85,8.78 25.25,15 40.15,15.9 -2.09,0.14 -4.16,0.39 -6.23,0.66 7.03,0.25 14.08,0.15 21.12,0 -2.07,-0.27 -4.14,-0.52 -6.23,-0.68 8.05,-0.79 15.89,-2.48 23.32,-5.73 9.7,-4.05 17.4,-10.17 25.79,-16.27 56.36,48.56 111.72,97.37 168.74995,145.15 -6.47,7.04 -13.83,10.4 -23.4399,10.55 -5.08,-0.14 -10.15,-0.23 -15.24005,-0.17 -123,0 -246,-0.01 -369,-0.01 -5.77,-0.08 -11.5,-0.03 -17.26,0.26 -7.69,-0.42 -14.62,-2.74 -20.81,-7.35 26.5,-24.2 54.15,-47.69 81.05,-71.33 22.08,-19.24 44.08,-38.57 66.01,-57.98 7.72,-6.64 15.06,-13.77 22.99,-20.16 z"
     fill="#0c7dce"
     id="path17"
     style="fill:#4dd2f5;fill-opacity:1" />
  <path
     d="m 810.69895,516.97632 c 2.89,0.04 5.77,0.04 8.66,-0.02 2.09,0.16 4.16,0.41 6.23,0.68 -7.04,0.15 -14.09,0.25 -21.12,0 2.07,-0.27 4.14,-0.52 6.23,-0.66 z"
     fill="#364f63"
     id="path18" />
  <path
     d="m 612.27895,650.73632 c 5.76,-0.29 11.49,-0.34 17.26,-0.26 123,0 246,0.01 369,0.01 5.09005,-0.06 10.16005,0.03 15.24005,0.17 -9.4,0.47 -18.83005,0.32 -28.24005,0.42 -120.67,0.03 -241.33,0 -362,0.02 -3.76,0.01 -7.51,-0.03 -11.26,-0.36 z"
     fill="#364f63"
     id="path19" />
  <path
     d="m 43.95,935.40479 q -13.35,0 -22.95,-4.35 -9.6,-4.5 -15.0000004,-13.65 -5.39999998,-9.3 -5.84999998,-23.1 -0.15000000146973,-6.45 -0.15000000146973,-12.75 0,-6.3 0.15000000146973,-12.9 0.45,-13.65 5.99999998,-22.8 5.5500004,-9.15 15.1500004,-13.8 9.75,-4.65 22.65,-4.65 12.9,0 22.65,4.65 9.75,4.65 15.3,13.8 5.55,9.15 6,22.8 0.3,6.6 0.3,12.9 0,6.3 -0.3,12.75 -0.45,13.8 -5.85,23.1 -5.4,9.15 -15.15,13.65 -9.6,4.35 -22.95,4.35 z m 0,-17.25 q 9.75,0 15.9,-5.7 6.15,-5.85 6.6,-18.9 0.3,-6.6 0.3,-12.15 0,-5.7 -0.3,-12.15 -0.3,-8.7 -3.3,-14.1 -2.85,-5.55 -7.8,-7.95 -4.95,-2.55 -11.4,-2.55 -6.3,0 -11.25,2.55 -4.95,2.4 -7.95,7.95 -2.85,5.4 -3.15,14.1 -0.15,6.45 -0.15,12.15 0,5.55 0.15,12.15 0.45,13.05 6.6,18.9 6.15,5.7 15.75,5.7 z m 105.74995,17.25 q -13.05,0 -22.65,-4.35 -9.6,-4.5 -14.85,-13.65 -5.25,-9.3 -5.25,-23.7 v -61.05 q 0,-1.65 1.05,-2.7 1.05,-1.05 2.55,-1.05 h 13.65 q 1.65,0 2.55,1.05 1.05,1.05 1.05,2.7 v 61.05 q 0,12.3 5.85,18.3 5.85,5.85 16.05,5.85 10.2,0 15.9,-5.85 5.85,-6 5.85,-18.3 v -61.05 q 0,-1.65 1.05,-2.7 1.05,-1.05 2.7,-1.05 h 13.5 q 1.65,0 2.55,1.05 1.05,1.05 1.05,2.7 v 61.05 q 0,14.4 -5.25,23.7 -5.1,9.15 -14.7,13.65 -9.45,4.35 -22.65,4.35 z m 91.79991,-1.5 q -1.5,0 -2.55,-1.05 -1.05,-1.05 -1.05,-2.55 v -82.95 h -27.75 q -1.5,0 -2.55,-1.05 -1.05,-1.05 -1.05,-2.55 v -11.1 q 0,-1.65 1.05,-2.7 1.05,-1.05 2.55,-1.05 h 76.5 q 1.65,0 2.7,1.05 1.05,1.05 1.05,2.7 v 11.1 q 0,1.5 -1.05,2.55 -1.05,1.05 -2.7,1.05 h -27.6 v 82.95 q 0,1.5 -1.05,2.55 -1.05,1.05 -2.7,1.05 z m 67.64994,0 q -1.5,0 -2.55,-1.05 -1.05,-1.05 -1.05,-2.55 v -97.8 q 0,-1.5 1.05,-2.55 1.05,-1.05 2.55,-1.05 h 13.95 q 1.5,0 2.55,1.05 1.05,1.05 1.05,2.55 v 83.55 h 47.55 q 1.65,0 2.7,1.05 1.05,1.05 1.05,2.7 v 10.5 q 0,1.5 -1.05,2.55 -1.05,1.05 -2.7,1.05 z m 122.39987,1.5 q -13.35,0 -22.95,-4.35 -9.6,-4.5 -15,-13.65 -5.4,-9.3 -5.85,-23.1 -0.15,-6.45 -0.15,-12.75 0,-6.3 0.15,-12.9 0.45,-13.65 6,-22.8 5.55,-9.15 15.15,-13.8 9.75,-4.65 22.65,-4.65 12.9,0 22.65,4.65 9.75,4.65 15.3,13.8 5.55,9.15 6,22.8 0.3,6.6 0.3,12.9 0,6.3 -0.3,12.75 -0.45,13.8 -5.85,23.1 -5.4,9.15 -15.15,13.65 -9.6,4.35 -22.95,4.35 z m 0,-17.25 q 9.75,0 15.9,-5.7 6.15,-5.85 6.6,-18.9 0.3,-6.6 0.3,-12.15 0,-5.7 -0.3,-12.15 -0.3,-8.7 -3.3,-14.1 -2.85,-5.55 -7.8,-7.95 -4.95,-2.55 -11.4,-2.55 -6.3,0 -11.25,2.55 -4.95,2.4 -7.95,7.95 -2.85,5.4 -3.15,14.1 -0.15,6.45 -0.15,12.15 0,5.55 0.15,12.15 0.45,13.05 6.6,18.9 6.15,5.7 15.75,5.7 z m 104.24994,17.25 q -13.35,0 -22.95,-4.35 -9.6,-4.5 -15,-13.65 -5.4,-9.3 -5.85,-23.1 -0.15,-6.45 -0.15,-12.75 0,-6.3 0.15,-12.9 0.45,-13.65 6,-22.8 5.55,-9.15 15.15,-13.8 9.75,-4.65 22.65,-4.65 12.9,0 22.65,4.65 9.75,4.65 15.3,13.8 5.55,9.15 6,22.8 0.3,6.6 0.3,12.9 0,6.3 -0.3,12.75 -0.45,13.8 -5.85,23.1 -5.4,9.15 -15.15,13.65 -9.6,4.35 -22.95,4.35 z m 0,-17.25 q 9.75,0 15.9,-5.7 6.15,-5.85 6.6,-18.9 0.3,-6.6 0.3,-12.15 0,-5.7 -0.3,-12.15 -0.3,-8.7 -3.3,-14.1 -2.85,-5.55 -7.8,-7.95 -4.95,-2.55 -11.4,-2.55 -6.3,0 -11.25,2.55 -4.95,2.4 -7.95,7.95 -2.85,5.4 -3.15,14.1 -0.15,6.45 -0.15,12.15 0,5.55 0.15,12.15 0.45,13.05 6.6,18.9 6.15,5.7 15.75,5.7 z m 67.49994,15.75 q -1.5,0 -2.55,-1.05 -1.05,-1.05 -1.05,-2.55 v -97.65 q 0,-1.65 1.05,-2.7 1.05,-1.05 2.55,-1.05 h 13.2 q 1.65,0 2.7,1.05 1.05,1.05 1.05,2.7 v 35.1 l 33.9,-36.15 q 0.6,-0.75 1.95,-1.65 1.5,-1.05 3.9,-1.05 h 14.85 q 1.2,0 2.1,0.9 1.05,0.9 1.05,2.25 0,1.05 -0.6,1.8 l -41.25,45.3 44.1,49.65 q 0.75,0.9 0.75,1.95 0,1.35 -1.05,2.25 -0.9,0.9 -2.1,0.9 h -15.45 q -2.55,0 -4.05,-1.05 -1.35,-1.2 -1.8,-1.65 l -36.3,-39.75 v 38.85 q 0,1.5 -1.05,2.55 -1.05,1.05 -2.7,1.05 z m 139.95017,0 q -2.25,0 -3.6,-1.2 -1.2,-1.35 -1.65,-3.3 l -17.85,-96.15 q 0,-0.45 -0.15,-0.75 0,-0.3 0,-0.45 0,-1.35 0.9,-2.25 1.05,-0.9 2.25,-0.9 h 13.2 q 3.75,0 4.2,3 l 12.45,67.95 13.5,-43.95 q 0.45,-1.2 1.5,-2.4 1.2,-1.35 3.45,-1.35 h 8.1 q 2.4,0 3.45,1.35 1.05,1.2 1.35,2.4 l 13.65,43.8 12.45,-67.8 q 0.45,-3 4.2,-3 h 13.2 q 1.2,0 2.1,0.9 0.9,0.9 0.9,2.25 0,0.15 0,0.45 0,0.3 -0.15,0.75 l -17.85,96.15 q -0.3,1.95 -1.65,3.3 -1.35,1.2 -3.6,1.2 h -10.05 q -2.25,0 -3.6,-1.2 -1.2,-1.2 -1.65,-2.55 l -16.8,-50.1 -16.8,50.1 q -0.6,1.35 -1.8,2.55 -1.2,1.2 -3.6,1.2 z m 108.74996,0 q -1.5,0 -2.55,-1.05 -1.05,-1.05 -1.05,-2.55 v -97.65 q 0,-1.65 1.05,-2.7 1.05,-1.05 2.55,-1.05 h 66 q 1.65,0 2.7,1.05 1.05,1.05 1.05,2.7 v 9.9 q 0,1.5 -1.05,2.55 -1.05,1.05 -2.7,1.05 h -49.35 v 26.55 h 46.05 q 1.65,0 2.7,1.05 1.05,0.9 1.05,2.55 v 9.3 q 0,1.65 -1.05,2.7 -1.05,0.9 -2.7,0.9 h -46.05 v 27.45 h 50.55 q 1.65,0 2.7,1.05 1.05,1.05 1.05,2.7 v 9.9 q 0,1.5 -1.05,2.55 -1.05,1.05 -2.7,1.05 z m 93.29999,0 q -1.5,0 -2.55,-1.05 -1.05,-1.05 -1.05,-2.55 v -97.65 q 0,-1.65 1.05,-2.7 1.05,-1.05 2.55,-1.05 h 43.5 q 12.15003,0 19.80003,3.75 7.65,3.6 11.25,10.05 3.75,6.45 3.75,15 0,5.7 -2.1,10.05 -1.95,4.2 -4.95,6.9 -2.85,2.7 -5.7,4.2 5.85,2.7 10.35,9 4.5,6.3 4.5,15 0,9 -4.05,16.05 -4.05,7.05 -12,11.1 -7.95,3.9 -19.65003,3.9 z m 17.25,-15.9 h 25.05 q 8.1,0 12.3,-4.35 4.20003,-4.5 4.20003,-10.8 0,-6.6 -4.35003,-10.95 -4.2,-4.35 -12.15,-4.35 h -25.05 z m 0,-46.05 h 23.55 q 7.95,0 11.85,-3.75 4.05003,-3.9 4.05003,-10.05 0,-6.3 -4.05003,-9.9 -3.9,-3.6 -11.85,-3.6 h -23.55 z m 156.90023,63.45 q -13.95,0 -23.7,-4.8 -9.6,-4.95 -14.7,-13.95 -5.1,-9.15 -5.7,-21.9 -0.15,-6.15 -0.15,-13.2 0,-7.05 0.15,-13.5 0.6,-12.6 5.7,-21.75 5.25,-9.15 14.85,-13.95 9.75,-4.95 23.55,-4.95 10.2,0 18.3,2.7 8.1,2.7 13.8,7.5 5.7,4.65 8.85,10.95 3.15,6.3 3.3,13.65 0.15,1.35 -0.9,2.25 -0.9,0.9 -2.25,0.9 h -14.25 q -1.65,0 -2.7,-0.75 -1.05,-0.9 -1.5,-2.85 -2.4,-9.9 -8.25,-13.5 -5.85,-3.6 -14.55,-3.6 -10.05,0 -16.05,5.7 -6,5.55 -6.45,18.45 -0.45,12.3 0,25.2 0.45,12.9 6.45,18.6 6,5.55 16.05,5.55 8.7,0 14.55,-3.6 6,-3.75 8.25,-13.5 0.45,-2.1 1.5,-2.85 1.05,-0.75 2.7,-0.75 h 14.25 q 1.35,0 2.25,0.9 1.05,0.9 0.9,2.25 -0.15,7.35 -3.3,13.65 -3.15,6.3 -8.85,11.1 -5.7,4.65 -13.8,7.35 -8.1,2.7 -18.3,2.7 z m 102.4499,0 q -13.35,0 -22.95,-4.35 -9.6,-4.5 -15,-13.65 -5.4,-9.3 -5.85,-23.1 -0.15,-6.45 -0.15,-12.75 0,-6.3 0.15,-12.9 0.45,-13.65 6,-22.8 5.55,-9.15 15.15,-13.8 9.75,-4.65 22.65,-4.65 12.9,0 22.65,4.65 9.75,4.65 15.3,13.8 5.55,9.15 6,22.8 0.3,6.6 0.3,12.9 0,6.3 -0.3,12.75 -0.45,13.8 -5.85,23.1 -5.4,9.15 -15.15,13.65 -9.6,4.35 -22.95,4.35 z m 0,-17.25 q 9.75,0 15.9,-5.7 6.15,-5.85 6.6,-18.9 0.3,-6.6 0.3,-12.15 0,-5.7 -0.3,-12.15 -0.3,-8.7 -3.3,-14.1 -2.85,-5.55 -7.8,-7.95 -4.95,-2.55 -11.4,-2.55 -6.3,0 -11.25,2.55 -4.95,2.4 -7.95,7.95 -2.85,5.4 -3.15,14.1 -0.15,6.45 -0.15,12.15 0,5.55 0.15,12.15 0.45,13.05 6.6,18.9 6.15,5.7 15.75,5.7 z m 67.4999,15.75 q -1.5,0 -2.55,-1.05 -1.05,-1.05 -1.05,-2.55 v -97.65 q 0,-1.65 1.05,-2.7 1.05,-1.05 2.55,-1.05 h 40.2 q 11.7,0 20.4,3.75 8.7,3.6 13.5,11.1 4.8,7.35 4.8,18.45 0,11.25 -4.8,18.6 -4.8,7.2 -13.5,10.8 -8.7,3.6 -20.4,3.6 h -22.35 v 35.1 q 0,1.5 -1.05,2.55 -0.9,1.05 -2.55,1.05 z m 17.55,-55.35 h 21.9 q 8.7,0 13.35,-4.05 4.65,-4.2 4.65,-12.3 0,-7.5 -4.35,-12 -4.35,-4.65 -13.65,-4.65 h -21.9 z m 105.9001,55.35 q -1.5,0 -2.55,-1.05 -1.05,-1.05 -1.05,-2.55 v -33.9 l -35.4,-62.7 q -0.15,-0.3 -0.3,-0.75 -0.15,-0.45 -0.15,-0.9 0,-1.35 0.9,-2.25 0.9,-0.9 2.1,-0.9 h 13.35 q 1.8,0 2.85,0.9 1.2,0.9 1.65,1.95 l 25.5,43.65 25.35,-43.65 q 0.6,-1.05 1.65,-1.95 1.2,-0.9 3,-0.9 h 13.2 q 1.35,0 2.25,0.9 0.9,0.9 0.9,2.25 0,0.45 -0.15,0.9 0,0.45 -0.3,0.75 l -35.4,62.7 v 33.9 q 0,1.5 -1.05,2.55 -1.05,1.05 -2.7,1.05 z m 102,0 q -1.5,0 -2.55,-1.05 -1.05,-1.05 -1.05,-2.55 v -97.8 q 0,-1.5 1.05,-2.55 1.05,-1.05 2.55,-1.05 h 13.95 q 1.5,0 2.55,1.05 1.05,1.05 1.05,2.55 v 83.55 h 47.55 q 1.65,0 2.7,1.05 1.05,1.05 1.05,2.7 v 10.5 q 0,1.5 -1.05,2.55 -1.05,1.05 -2.7,1.05 z m 87,0 q -1.5,0 -2.55,-1.05 -1.05,-1.05 -1.05,-2.55 v -97.8 q 0,-1.5 1.05,-2.55 1.05,-1.05 2.55,-1.05 h 14.1 q 1.65,0 2.55,1.05 1.05,1.05 1.05,2.55 v 97.8 q 0,1.5 -1.05,2.55 -0.9,1.05 -2.55,1.05 z m 44.85,0 q -1.5,0 -2.55,-1.05 -1.05,-1.05 -1.05,-2.55 v -97.65 q 0,-1.65 1.05,-2.7 1.05,-1.05 2.55,-1.05 h 11.55 q 2.1,0 3,1.05 1.05,0.9 1.35,1.35 l 43.2,67.2 v -65.85 q 0,-1.65 0.9,-2.7 1.05,-1.05 2.7,-1.05 h 12.6 q 1.65,0 2.7,1.05 1.05,1.05 1.05,2.7 v 97.5 q 0,1.65 -1.05,2.7 -1.05,1.05 -2.55,1.05 h -11.7 q -2.1,0 -3,-1.05 -0.9,-1.05 -1.35,-1.35 l -43.05,-65.7 v 64.5 q 0,1.5 -1.05,2.55 -1.05,1.05 -2.7,1.05 z m 106.05,0 q -1.5,0 -2.55,-1.05 -1.05,-1.05 -1.05,-2.55 v -97.65 q 0,-1.65 1.05,-2.7 1.05,-1.05 2.55,-1.05 h 13.2 q 1.65,0 2.7,1.05 1.05,1.05 1.05,2.7 v 35.1 l 33.9,-36.15 q 0.6,-0.75 1.95,-1.65 1.5,-1.05 3.9,-1.05 h 14.85 q 1.2,0 2.1,0.9 1.05,0.9 1.05,2.25 0,1.05 -0.6,1.8 l -41.25,45.3 44.1,49.65 q 0.75,0.9 0.75,1.95 0,1.35 -1.05,2.25 -0.9,0.9 -2.1,0.9 h -15.45 q -2.55,0 -4.05,-1.05 -1.35,-1.2 -1.8,-1.65 l -36.3,-39.75 v 38.85 q 0,1.5 -1.05,2.55 -1.05,1.05 -2.7,1.05 z"
     id="text1"
     style="font-weight:500;font-size:150px;font-family:Rubik;-inkscape-font-specification:'Rubik Medium';fill:#f94b6c;stroke-width:2.83465;fill-opacity:1"
     aria-label="OUTLOOK WEB COPY LINK" />
</svg>
